<svg width="60" height="60" viewBox="0 0 60 60" fill="none" xmlns="http://www.w3.org/2000/svg">
<path d="M29.8828 46.1719C31.1773 46.1719 32.2266 45.1226 32.2266 43.8281V24.6094C32.2266 23.7149 31.7175 22.8984 30.9144 22.5048C30.1111 22.1111 29.154 22.2089 28.4471 22.7568L23.7596 26.3896C22.7364 27.1826 22.5498 28.6548 23.3427 29.6779C24.1358 30.7013 25.608 30.8877 26.631 30.0948L27.5391 29.391V43.8281C27.5391 45.1226 28.5884 46.1719 29.8828 46.1719Z" fill="#0094FF"/>
<path d="M57.6561 29.2968C58.9506 29.2968 59.9999 28.2475 59.9999 26.9531V14.0625C59.9999 8.89311 55.7943 4.68749 50.6249 4.68749H47.578V2.34375C47.578 1.04929 46.5287 0 45.2343 0C43.9398 0 42.8905 1.04929 42.8905 2.34375V4.68749H32.2265V2.34375C32.2265 1.04929 31.1772 0 29.8828 0C28.5883 0 27.539 1.04929 27.539 2.34375V4.68749H16.9922V2.34375C16.9922 1.04929 15.9429 0 14.6484 0C13.354 0 12.3047 1.04929 12.3047 2.34375V4.68749H9.37498C4.20562 4.68749 0 8.89311 0 14.0625V50.6249C0 55.7943 4.20562 59.9999 9.37498 59.9999H38.9062C38.9859 59.9999 39.0646 59.9958 39.1423 59.9879C39.2197 59.9957 39.2971 60 39.3745 60C39.9993 60 40.6124 59.7498 41.0631 59.2819L59.3443 40.2975C59.9963 39.6205 60.1808 38.6194 59.8129 37.7545C59.4451 36.8896 58.5961 36.3281 57.6561 36.3281H46.4062C41.2368 36.3281 37.0312 40.5337 37.0312 45.703V55.3124H9.37498C6.7903 55.3124 4.68749 53.2096 4.68749 50.6249V14.0625C4.68749 11.4778 6.7903 9.37498 9.37498 9.37498H12.3047V11.7187C12.3047 13.0132 13.354 14.0625 14.6484 14.0625C15.9429 14.0625 16.9922 13.0132 16.9922 11.7187V9.37498H27.539V11.7187C27.539 13.0132 28.5883 14.0625 29.8828 14.0625C31.1772 14.0625 32.2265 13.0132 32.2265 11.7187V9.37498H42.8905V11.7187C42.8905 13.0132 43.9398 14.0625 45.2343 14.0625C46.5287 14.0625 47.578 13.0132 47.578 11.7187V9.37498H50.6249C53.2096 9.37498 55.3124 11.4778 55.3124 14.0625V26.9531C55.3124 28.2475 56.3617 29.2968 57.6561 29.2968ZM41.7187 45.703C41.7187 43.1184 43.8215 41.0155 46.4062 41.0155H52.1455L41.7187 51.8433V45.703Z" fill="#0094FF"/>
</svg>
