<svg width="60" height="60" viewBox="0 0 60 60" fill="none" xmlns="http://www.w3.org/2000/svg">
<path d="M37.0312 28.125C37.0297 26.7579 36.486 25.4473 35.5193 24.4807C34.5527 23.514 33.2421 22.9703 31.875 22.9688H28.125C27.5034 22.9688 26.9073 22.7218 26.4677 22.2823C26.0282 21.8427 25.7812 21.2466 25.7812 20.625C25.7812 20.0034 26.0282 19.4073 26.4677 18.9677C26.9073 18.5282 27.5034 18.2812 28.125 18.2812H32.8125C33.1853 18.2817 33.5428 18.4299 33.8064 18.6936C34.0701 18.9572 34.2183 19.3147 34.2188 19.6875C34.2188 20.0605 34.3669 20.4181 34.6306 20.6819C34.8944 20.9456 35.252 21.0938 35.625 21.0938C35.998 21.0938 36.3556 20.9456 36.6194 20.6819C36.8831 20.4181 37.0312 20.0605 37.0312 19.6875C37.03 18.569 36.5851 17.4967 35.7942 16.7058C35.0033 15.9149 33.931 15.47 32.8125 15.4688H31.4062V13.125C31.4062 12.752 31.2581 12.3944 30.9944 12.1306C30.7306 11.8669 30.373 11.7188 30 11.7188C29.627 11.7188 29.2694 11.8669 29.0056 12.1306C28.7419 12.3944 28.5938 12.752 28.5938 13.125V15.4688H28.125C26.7575 15.4688 25.446 16.012 24.479 16.979C23.512 17.946 22.9688 19.2575 22.9688 20.625C22.9688 21.9925 23.512 23.304 24.479 24.271C25.446 25.238 26.7575 25.7812 28.125 25.7812H31.875C32.4966 25.7812 33.0927 26.0282 33.5323 26.4677C33.9718 26.9073 34.2188 27.5034 34.2188 28.125C34.2188 28.7466 33.9718 29.3427 33.5323 29.7823C33.0927 30.2218 32.4966 30.4688 31.875 30.4688H27.1875C26.8147 30.4683 26.4572 30.3201 26.1936 30.0564C25.9299 29.7928 25.7817 29.4353 25.7812 29.0625C25.7812 28.6895 25.6331 28.3319 25.3694 28.0681C25.1056 27.8044 24.748 27.6562 24.375 27.6562C24.002 27.6562 23.6444 27.8044 23.3806 28.0681C23.1169 28.3319 22.9688 28.6895 22.9688 29.0625C22.97 30.181 23.4149 31.2533 24.2058 32.0442C24.9967 32.8351 26.069 33.28 27.1875 33.2812H28.5938V35.625C28.5938 35.998 28.7419 36.3556 29.0056 36.6194C29.2694 36.8831 29.627 37.0312 30 37.0312C30.373 37.0312 30.7306 36.8831 30.9944 36.6194C31.2581 36.3556 31.4062 35.998 31.4062 35.625V33.2812H31.875C33.2421 33.2797 34.5527 32.736 35.5193 31.7693C36.486 30.8027 37.0297 29.4921 37.0312 28.125Z" fill="#0094FF"/>
<path d="M52.4736 32.543C53.4259 29.9253 53.9108 27.1606 53.9062 24.375C53.9062 11.193 43.182 0.46875 30 0.46875C16.818 0.46875 6.09375 11.193 6.09375 24.375C6.09375 37.557 16.818 48.2813 30 48.2813C30.2796 48.2813 30.5595 48.2749 30.8388 48.2653C31.3776 50.6053 32.4879 52.7754 34.0705 54.5814C35.653 56.3874 37.6584 57.7731 39.9074 58.6145C42.1564 59.456 44.5789 59.727 46.9582 59.4034C49.3376 59.0797 51.5996 58.1714 53.5421 56.7598C55.4846 55.3481 57.047 53.4771 58.0896 51.314C59.1322 49.1509 59.6225 46.7631 59.5167 44.3642C59.4108 41.9653 58.7121 39.63 57.4831 37.5671C56.254 35.5042 54.5329 33.7781 52.4736 32.543ZM30 45.4688C18.3689 45.4688 8.90625 36.0061 8.90625 24.375C8.90625 12.7439 18.3689 3.28125 30 3.28125C41.6311 3.28125 51.0938 12.7439 51.0938 24.375C51.0974 26.7419 50.7006 29.0923 49.9204 31.3269C49.0326 31.0064 48.1155 30.7738 47.1823 30.6326C47.9142 28.6277 48.2863 26.5093 48.2812 24.375C48.2812 14.2947 40.0804 6.09375 30 6.09375C19.9196 6.09375 11.7188 14.2947 11.7188 24.375C11.7188 34.4554 19.9196 42.6563 30 42.6563C30.2203 42.6563 30.4405 42.6523 30.6607 42.6445C30.533 43.4232 30.4688 44.2109 30.4688 45C30.4688 45.155 30.472 45.3095 30.477 45.4634C30.318 45.467 30.1591 45.4688 30 45.4688ZM31.4414 39.7751C30.9649 39.819 30.4833 39.8438 30 39.8438C21.4705 39.8438 14.5312 32.9045 14.5312 24.375C14.5312 15.8455 21.4705 8.90625 30 8.90625C38.5295 8.90625 45.4688 15.8455 45.4688 24.375C45.4746 26.4781 45.0469 28.5598 44.2125 30.4903C41.4163 30.6459 38.7243 31.6045 36.4592 33.2513C34.194 34.8981 32.4518 37.1632 31.4414 39.7751ZM45 56.7188C42.6823 56.7188 40.4165 56.0315 38.4894 54.7438C36.5623 53.4561 35.0603 51.6259 34.1733 49.4846C33.2863 47.3433 33.0543 44.987 33.5064 42.7138C33.9586 40.4406 35.0747 38.3525 36.7136 36.7136C38.3525 35.0747 40.4406 33.9586 42.7138 33.5064C44.987 33.0543 47.3433 33.2863 49.4846 34.1733C51.6259 35.0603 53.4561 36.5623 54.7438 38.4894C56.0315 40.4165 56.7188 42.6823 56.7188 45C56.7152 48.1069 55.4795 51.0856 53.2825 53.2825C51.0856 55.4795 48.1069 56.7152 45 56.7188Z" fill="#0094FF"/>
<path d="M48.75 49.2188H42.1875C41.8147 49.2184 41.4572 49.0701 41.1936 48.8065C40.9299 48.5428 40.7817 48.1854 40.7812 47.8125V44.0625C40.7817 43.6897 40.9299 43.3323 41.1936 43.0686C41.4572 42.805 41.8147 42.6567 42.1875 42.6563H45.355L44.0057 44.0057C43.8733 44.1359 43.7681 44.291 43.696 44.4621C43.6239 44.6331 43.5864 44.8168 43.5857 45.0024C43.5849 45.1881 43.6209 45.372 43.6916 45.5436C43.7623 45.7153 43.8663 45.8712 43.9975 46.0025C44.1288 46.1338 44.2847 46.2378 44.4564 46.3084C44.628 46.3791 44.812 46.4151 44.9976 46.4144C45.1833 46.4136 45.3669 46.3761 45.538 46.304C45.709 46.232 45.8641 46.1267 45.9943 45.9944L49.7443 42.2444C50.008 41.9807 50.1562 41.623 50.1562 41.25C50.1562 40.8771 50.008 40.5194 49.7443 40.2557L45.9943 36.5057C45.7299 36.2455 45.3733 36.1004 45.0024 36.1019C44.6314 36.1034 44.2761 36.2515 44.0137 36.5138C43.7514 36.7761 43.6034 37.1314 43.6019 37.5024C43.6004 37.8734 43.7455 38.2299 44.0057 38.4944L45.355 39.8438H42.1875C41.069 39.845 39.9967 40.2899 39.2058 41.0808C38.4149 41.8717 37.97 42.944 37.9688 44.0625V47.8125C37.97 48.931 38.4149 50.0034 39.2058 50.7943C39.9967 51.5852 41.069 52.0301 42.1875 52.0313H48.75C49.123 52.0313 49.4806 51.8831 49.7444 51.6194C50.0081 51.3557 50.1562 50.998 50.1562 50.625C50.1562 50.2521 50.0081 49.8944 49.7444 49.6307C49.4806 49.367 49.123 49.2188 48.75 49.2188Z" fill="#0094FF"/>
</svg>
