<svg width="14" height="14" viewBox="0 0 14 14" fill="none" xmlns="http://www.w3.org/2000/svg">
<path d="M13.4167 7.57124H0.583333C0.261332 7.57124 0 7.3099 0 6.9879C0 6.6659 0.261332 6.40457 0.583333 6.40457H13.4167C13.7387 6.40457 14 6.6659 14 6.9879C14 7.3099 13.7387 7.57124 13.4167 7.57124Z" fill="black"/>
<path d="M13.4167 3.09898H0.583333C0.261332 3.09898 0 2.83765 0 2.51565C0 2.19364 0.261332 1.93231 0.583333 1.93231H13.4167C13.7387 1.93231 14 2.19364 14 2.51565C14 2.83765 13.7387 3.09898 13.4167 3.09898Z" fill="black"/>
<path d="M13.4167 12.0434H0.583333C0.261332 12.0434 0 11.782 0 11.46C0 11.138 0.261332 10.8767 0.583333 10.8767H13.4167C13.7387 10.8767 14 11.138 14 11.46C14 11.782 13.7387 12.0434 13.4167 12.0434Z" fill="black"/>
</svg>
