<svg width="60" height="60" viewBox="0 0 60 60" fill="none" xmlns="http://www.w3.org/2000/svg">
<path d="M17.1579 17.1995C18.4959 17.1998 19.807 17.5568 20.942 18.2297C22.0771 18.9027 22.9906 19.8647 23.5788 21.0064C24.1668 19.8646 25.0804 18.9026 26.2155 18.2296C27.3506 17.5567 28.6617 17.2 29.9997 17.2C31.3377 17.2 32.6489 17.5567 33.784 18.2296C34.9191 18.9026 35.8326 19.8646 36.4206 21.0064C37.1311 19.6257 38.3132 18.5146 39.774 17.8544C41.2348 17.1942 42.8881 17.0238 44.4639 17.3712C46.0397 17.7186 47.445 18.5632 48.4505 19.7671C49.456 20.971 50.0022 22.4632 50 24C50 18.9609 47.8929 14.1282 44.1421 10.565C40.3914 7.00178 35.3043 5 30 5C24.6957 5 19.6086 7.00178 15.8579 10.565C12.1071 14.1282 10 18.9609 10 24C9.99993 23.107 10.185 22.2227 10.5447 21.3976C10.9044 20.5725 11.4316 19.8228 12.0963 19.1913C12.761 18.5598 13.5501 18.0589 14.4186 17.7171C15.2871 17.3754 16.2179 17.1995 17.1579 17.1995Z" fill="#0095FF" fill-opacity="0.47"/>
<path d="M21 41H39V52.25C39 52.9794 38.7146 53.6788 38.2066 54.1946C37.6986 54.7103 37.0096 55 36.2912 55H23.7094C22.9909 55 22.3019 54.7103 21.7939 54.1946C21.2859 53.6788 21.0005 52.9794 21.0005 52.25V41H21Z" fill="#0095FF" fill-opacity="0.47"/>
<path d="M24.0012 20H24.8464C25.4674 19.2073 26.2492 18.5686 27.1352 18.13C28.0212 17.6914 28.9894 17.4639 29.9698 17.4639C30.9502 17.4639 31.9184 17.6914 32.8045 18.13C33.6905 18.5686 34.4722 19.2073 35.0933 20H35.9988C35.9988 20 36.2353 10.6478 30.03 5C30.0098 5 29.9897 5 29.9696 5C23.7623 10.6457 24.0012 20 24.0012 20Z" fill="white"/>
<path d="M18.8564 14.8989C18.9524 14.8988 19.047 14.875 19.1316 14.8295C19.2397 14.772 19.3491 14.7155 19.4597 14.6598C19.5984 14.5896 19.7035 14.4673 19.7519 14.3196C19.8004 14.1719 19.7882 14.011 19.718 13.8723C19.6478 13.7336 19.5254 13.6285 19.3777 13.5801C19.23 13.5317 19.0692 13.5439 18.9305 13.614C18.8139 13.6731 18.6978 13.7334 18.5822 13.795C18.4666 13.8564 18.3749 13.9547 18.3217 14.0742C18.2685 14.1938 18.2568 14.3277 18.2886 14.4547C18.3203 14.5817 18.3937 14.6943 18.497 14.7748C18.6002 14.8552 18.7274 14.8987 18.8583 14.8984L18.8564 14.8989Z" fill="#0094FF"/>
<path d="M50.9873 24.9246C50.9873 24.9033 51 24.8847 51 24.8629C50.9978 21.5184 50.1868 18.2235 48.6353 15.2554C47.0839 12.2873 44.8374 9.73292 42.0849 7.80735C39.3324 5.88179 36.1546 4.64138 32.8189 4.19055C29.4832 3.73972 26.0873 4.09166 22.9171 5.21675C22.8321 5.24695 22.7538 5.29352 22.6868 5.35377C22.6199 5.41403 22.5655 5.4868 22.5268 5.56793C22.4882 5.64907 22.466 5.73697 22.4615 5.82662C22.457 5.91628 22.4704 6.00593 22.5008 6.09045C22.5312 6.17498 22.5781 6.25273 22.6387 6.31927C22.6994 6.3858 22.7726 6.43981 22.8543 6.47822C22.9359 6.51663 23.0244 6.53868 23.1147 6.54312C23.2049 6.54756 23.2951 6.53429 23.3802 6.50409C24.9439 5.94825 26.5726 5.59312 28.2268 5.44733C23.5397 10.4781 22.8803 17.2137 22.795 19.5037C22.0541 18.7038 21.1547 18.0648 20.1533 17.6266C19.152 17.1884 18.0703 16.9606 16.9761 16.9574C15.8819 16.9542 14.7989 17.1757 13.795 17.6081C12.791 18.0404 11.8879 18.6743 11.1422 19.4698C12.3768 15.2267 15.0205 11.5235 18.6431 8.96293C18.7921 8.85779 18.893 8.69815 18.9235 8.51913C18.954 8.34012 18.9117 8.15638 18.8059 8.00835C18.7001 7.86032 18.5394 7.76011 18.3592 7.72978C18.179 7.69945 17.9941 7.74148 17.8451 7.84661C15.1133 9.77834 12.8855 12.3303 11.347 15.2902C9.80847 18.2501 9.00383 21.5322 9 24.8634C9 24.8853 9.01045 24.9039 9.01265 24.9252C9.02216 25.0166 9.04943 25.1053 9.09295 25.1864C9.1034 25.2049 9.10505 25.2262 9.11715 25.2443L20.0329 41.3983V49.124C20.0329 49.3051 20.1054 49.4789 20.2343 49.6069C20.3632 49.735 20.5381 49.807 20.7204 49.807C20.9028 49.807 21.0776 49.735 21.2066 49.6069C21.3355 49.4789 21.4079 49.3051 21.4079 49.124V46.0013H33.3275C33.5098 46.0013 33.6847 45.9293 33.8136 45.8012C33.9425 45.6731 34.015 45.4994 34.015 45.3182C34.015 45.1371 33.9425 44.9634 33.8136 44.8353C33.6847 44.7072 33.5098 44.6352 33.3275 44.6352H21.4079V41.8737H38.5921V52.5423C38.5913 53.0969 38.3692 53.6286 37.9744 54.0207C37.5796 54.4129 37.0444 54.6334 36.4861 54.634H23.5139C22.9556 54.6334 22.4204 54.4129 22.0256 54.0207C21.6308 53.6286 21.4087 53.0969 21.4079 52.5423C21.4079 52.3612 21.3355 52.1875 21.2066 52.0594C21.0776 51.9313 20.9028 51.8593 20.7204 51.8593C20.5381 51.8593 20.3632 51.9313 20.2343 52.0594C20.1054 52.1875 20.0329 52.3612 20.0329 52.5423C20.0341 53.4591 20.4012 54.338 21.0538 54.9862C21.7064 55.6344 22.5911 55.999 23.5139 56H36.4861C37.4089 55.999 38.2936 55.6344 38.9462 54.9862C39.5988 54.338 39.9659 53.4591 39.9671 52.5423V41.3983L50.8834 25.2459C50.8955 25.2279 50.8972 25.2071 50.9076 25.188C50.9511 25.1069 50.9784 25.0182 50.9879 24.9268L50.9873 24.9246ZM48.8649 19.4791C48.0572 18.6153 47.0649 17.9423 45.9611 17.5094C44.8572 17.0765 43.6698 16.8948 42.4859 16.9775C41.3021 17.0603 40.152 17.4054 39.12 17.9876C38.0881 18.5698 37.2005 19.3743 36.5224 20.3419C35.8446 19.3737 34.9569 18.5688 33.9246 17.9865C32.8924 17.4042 31.7418 17.0593 30.5576 16.9771C29.3734 16.895 28.1857 17.0777 27.082 17.5118C25.9783 17.9459 24.9866 18.6204 24.1799 19.4857C24.2861 17.1869 25.0319 10.2453 30.0308 5.58229C33.6641 8.96675 35.0726 13.5222 35.6061 16.8083C35.6321 16.9683 35.7145 17.1139 35.8387 17.2192C35.9628 17.3244 36.1206 17.3823 36.2837 17.3825C36.3206 17.3826 36.3574 17.3797 36.3937 17.3738C36.5737 17.345 36.7348 17.2463 36.8416 17.0994C36.9483 16.9526 36.992 16.7696 36.963 16.5908C36.4388 13.3632 35.115 8.97713 31.8414 5.45443C35.767 5.82768 39.489 7.36442 42.5246 9.86526C45.5602 12.3661 47.7692 15.7156 48.8649 19.4791ZM21.09 40.5077L10.3849 24.6695C10.4263 23.2095 10.9591 21.8055 11.8982 20.6819C12.8374 19.5582 14.1285 18.7798 15.5654 18.4709C17.0022 18.1621 18.5018 18.3407 19.8244 18.9782C21.1471 19.6157 22.2164 20.6753 22.8616 21.9877C22.9182 22.1023 23.0061 22.1988 23.1152 22.2663C23.2242 22.3338 23.3502 22.3696 23.4787 22.3696C23.6072 22.3696 23.7331 22.3338 23.8422 22.2663C23.9513 22.1988 24.0391 22.1023 24.0958 21.9877C24.6262 20.9074 25.4467 19.9936 26.4668 19.3473C27.4869 18.701 28.6669 18.3472 29.8765 18.3251C31.0862 18.3029 32.2785 18.6132 33.3219 19.2217C34.3653 19.8302 35.2192 20.7133 35.7893 21.7735L32.7175 40.5077H27.2825L24.6997 24.7541C24.6705 24.5753 24.571 24.4153 24.4231 24.3094C24.2752 24.2034 24.091 24.1602 23.911 24.1892C23.731 24.2181 23.5699 24.317 23.4633 24.4639C23.3566 24.6109 23.3131 24.7939 23.3423 24.9727L25.8888 40.5071L21.09 40.5077ZM34.114 40.5077L37.15 21.9675C37.7993 20.6598 38.8706 19.6057 40.193 18.9732C41.5154 18.3407 43.0128 18.1661 44.4467 18.4772C45.8806 18.7884 47.1684 19.5674 48.1048 20.6901C49.0413 21.8128 49.5726 23.2147 49.614 24.6722L38.9127 40.5077H34.114Z" fill="#0094FF"/>
<path d="M32.5017 47.7274C32.6571 47.7274 32.8062 47.6656 32.916 47.5557C33.0259 47.4459 33.0877 47.2968 33.0877 47.1414C33.0877 46.986 33.0259 46.837 32.916 46.7271C32.8062 46.6172 32.6571 46.5555 32.5017 46.5555H32.0391C31.8837 46.5555 31.7346 46.6172 31.6248 46.7271C31.5149 46.837 31.4531 46.986 31.4531 47.1414C31.4531 47.2968 31.5149 47.4459 31.6248 47.5557C31.7346 47.6656 31.8837 47.7274 32.0391 47.7274H32.5017Z" fill="#0094FF"/>
</svg>
