<svg width="23" height="22" viewBox="0 0 23 22" fill="none" xmlns="http://www.w3.org/2000/svg">
<g clip-path="url(#clip0)">
<path d="M11.0809 0C6.61527 0 2.98181 3.63346 2.98181 8.09952C2.98181 9.26444 3.22024 10.3767 3.69013 11.4056C5.71512 15.8368 9.59759 20.5151 10.7396 21.8433C10.8251 21.9426 10.9498 21.9998 11.0811 21.9998C11.2124 21.9998 11.3371 21.9426 11.4227 21.8433C12.5642 20.5154 16.4466 15.8372 18.4723 11.4056C18.9424 10.3767 19.1806 9.26444 19.1806 8.09952C19.1802 3.63346 15.5467 0 11.0809 0ZM11.0809 12.3064C8.76116 12.3064 6.87374 10.419 6.87374 8.09929C6.87374 5.77935 8.76116 3.89193 11.0809 3.89193C13.4006 3.89193 15.288 5.77935 15.288 8.09929C15.2882 10.419 13.4008 12.3064 11.0809 12.3064Z" fill="white"/>
</g>
<defs>
<clipPath id="clip0">
<rect width="22" height="22" fill="white" transform="translate(0.0812073)"/>
</clipPath>
</defs>
</svg>
