<svg width="60" height="60" viewBox="0 0 60 60" fill="none" xmlns="http://www.w3.org/2000/svg">
<path d="M57.1071 30.7772C56.8556 30.2832 56.8556 29.7168 57.1071 29.2229L59.4393 24.6451C60.7378 22.0961 59.709 19.0581 57.0971 17.7284L52.4062 15.3401C51.9001 15.0825 51.5531 14.6241 51.4541 14.0828L50.5366 9.06387C50.0258 6.26944 47.3319 4.39165 44.4048 4.78903L39.1468 5.5027C38.5793 5.57957 38.0181 5.40449 37.6064 5.02235L33.7898 1.47958C31.6646 -0.493134 28.3354 -0.493251 26.2104 1.47958L22.3936 5.0227C21.9818 5.40496 21.4206 5.57969 20.8532 5.50305L15.5952 4.78938C12.6672 4.39177 9.97423 6.2698 9.46337 9.06422L8.54594 14.0829C8.44689 14.6243 8.09993 15.0827 7.59395 15.3404L2.90299 17.7286C0.291155 19.0582 -0.737655 22.0965 0.560815 24.6454L2.89286 29.2232C3.14444 29.7171 3.14444 30.2836 2.89286 30.7774L0.560692 35.3552C-0.737777 37.9041 0.291033 40.9421 2.90287 42.2718L7.59383 44.6601C8.09993 44.9177 8.44689 45.3761 8.54594 45.9174L9.46337 50.9363C9.92843 53.4802 12.2017 55.2643 14.8144 55.264C15.0717 55.264 15.3329 55.2467 15.5953 55.2111L20.8533 54.4974C21.4204 54.4202 21.9819 54.5956 22.3937 54.9777L26.2104 58.5205C27.2731 59.507 28.6363 60.0001 30 60C31.3633 59.9999 32.7274 59.5068 33.7896 58.5205L37.6064 54.9777C38.0182 54.5956 38.5795 54.421 39.1468 54.4974L44.4048 55.2111C47.3332 55.6086 50.0258 53.7307 50.5366 50.9362L51.4542 45.9175C51.5532 45.3761 51.9002 44.9178 52.4062 44.6601L57.0971 42.2718C59.709 40.9422 60.7378 37.904 59.4393 35.355L57.1071 30.7772ZM55.4067 39.2148L50.7158 41.6031C49.2202 42.3647 48.1945 43.7191 47.902 45.3194L46.9845 50.3382C46.8117 51.2837 45.9008 51.9187 44.9099 51.7845L39.6519 51.0709C37.9751 50.843 36.3159 51.3608 35.0989 52.4904L31.2821 56.033C30.5633 56.7003 29.4369 56.7003 28.7178 56.033L24.9011 52.4902C23.8726 51.5355 22.5279 51.0181 21.1242 51.0181C20.867 51.0181 20.6077 51.0355 20.3481 51.0708L15.0901 51.7844C14.1001 51.9187 13.1884 51.2836 13.0155 50.3381L12.0979 45.3191C11.8053 43.7189 10.7797 42.3643 9.28396 41.6029L4.59301 39.2147C3.70929 38.7648 3.36122 37.737 3.80052 36.8746L6.13268 32.2967C6.8762 30.837 6.8762 29.1629 6.13268 27.7033L3.80052 23.1254C3.36122 22.263 3.70929 21.2352 4.59301 20.7853L9.28396 18.397C10.7795 17.6354 11.8053 16.281 12.0978 14.6807L13.0152 9.66187C13.1882 8.71641 14.099 8.08126 15.0898 8.21556L20.3478 8.92922C22.024 9.15691 23.6839 8.6393 24.9009 7.50974L28.7177 3.96697C29.4365 3.29971 30.5629 3.29971 31.282 3.96697L35.0986 7.50974C36.3156 8.63942 37.9752 9.15691 39.6517 8.92922L44.9097 8.21556C45.8998 8.08114 46.8115 8.71641 46.9843 9.66187L47.9017 14.6808C48.1943 16.2811 49.22 17.6357 50.7157 18.397L55.4066 20.7853C56.2903 21.2352 56.6384 22.263 56.1991 23.1254L53.867 27.7031C53.1234 29.1627 53.1234 30.837 53.867 32.2966L56.1991 36.8744C56.6385 37.737 56.2905 38.7649 55.4067 39.2148Z" fill="#0094FF"/>
<path d="M43.1758 17.3575C42.4717 16.6818 41.3298 16.6818 40.6257 17.3575L16.8242 40.1959C16.12 40.8716 16.12 41.9672 16.8242 42.6429C17.1763 42.9807 17.6378 43.1497 18.0992 43.1497C18.5606 43.1497 19.0222 42.9808 19.3742 42.6429L43.1757 19.8046C43.8801 19.1287 43.8801 18.0333 43.1758 17.3575Z" fill="#0094FF"/>
<path d="M22.7871 14.4278C19.1413 14.4278 16.1752 17.2739 16.1752 20.7722C16.1752 24.2705 19.1413 27.1166 22.7871 27.1166C26.4329 27.1166 29.3991 24.2705 29.3991 20.7722C29.3991 17.2739 26.4329 14.4278 22.7871 14.4278ZM22.7871 23.6559C21.13 23.6559 19.7818 22.3623 19.7818 20.7721C19.7818 19.182 21.13 17.8884 22.7871 17.8884C24.4443 17.8884 25.7926 19.182 25.7926 20.7721C25.7925 22.3623 24.4443 23.6559 22.7871 23.6559Z" fill="#0094FF"/>
<path d="M37.2128 32.8838C33.567 32.8838 30.6009 35.7299 30.6009 39.2282C30.6009 42.7265 33.567 45.5726 37.2128 45.5726C40.8586 45.5726 43.8248 42.7265 43.8248 39.2282C43.8248 35.7299 40.8586 32.8838 37.2128 32.8838ZM37.2128 42.1119C35.5556 42.1119 34.2073 40.8183 34.2073 39.2282C34.2073 37.6381 35.5555 36.3445 37.2128 36.3445C38.87 36.3445 40.2182 37.6381 40.2182 39.2282C40.2182 40.8183 38.87 42.1119 37.2128 42.1119Z" fill="#0094FF"/>
</svg>
