<svg width="23" height="22" viewBox="0 0 23 22" fill="none" xmlns="http://www.w3.org/2000/svg">
<g clip-path="url(#clip0)">
<path d="M16.8071 14.5534C16.0883 13.8439 15.191 13.8439 14.4769 14.5534C13.9321 15.0937 13.3873 15.6339 12.8517 16.1832C12.7052 16.3343 12.5816 16.3663 12.403 16.2656C12.0505 16.0733 11.6751 15.9177 11.3364 15.7071C9.75696 14.7137 8.43392 13.4364 7.26195 11.9989C6.68055 11.2848 6.16323 10.5202 5.80157 9.65958C5.72833 9.48561 5.74206 9.37116 5.88398 9.22924C6.42876 8.70278 6.95981 8.16257 7.49543 7.62237C8.24164 6.87158 8.24164 5.9926 7.49085 5.23724C7.0651 4.8069 6.63935 4.38573 6.21359 3.9554C5.7741 3.51591 5.3392 3.07185 4.89513 2.63694C4.17639 1.9365 3.2791 1.9365 2.56493 2.64151C2.01557 3.18172 1.4891 3.73565 0.930589 4.2667C0.413276 4.75655 0.152331 5.35626 0.0973948 6.0567C0.010413 7.19662 0.289671 8.27244 0.683378 9.3208C1.4891 11.4908 2.71601 13.4181 4.20385 15.1852C6.21359 17.5749 8.61246 19.4656 11.4188 20.8299C12.6823 21.4433 13.9916 21.9149 15.4154 21.9927C16.395 22.0476 17.2466 21.8004 17.9287 21.0359C18.3956 20.514 18.9221 20.0379 19.4165 19.5389C20.149 18.7972 20.1536 17.9 19.4257 17.1675C18.5559 16.2931 17.6815 15.4233 16.8071 14.5534Z" fill="white"/>
<path d="M15.9327 10.9048L17.6219 10.6164C17.3564 9.06445 16.6239 7.65901 15.5115 6.54198C14.3349 5.36543 12.8471 4.6238 11.2082 4.3949L10.9701 6.09333C12.2382 6.27187 13.3919 6.84412 14.3029 7.75514C15.1636 8.61581 15.7267 9.70537 15.9327 10.9048Z" fill="white"/>
<path d="M18.5742 3.56168C16.624 1.61145 14.1564 0.379973 11.4325 0L11.1945 1.69843C13.5475 2.02805 15.6809 3.09472 17.3656 4.77485C18.9633 6.37257 20.0117 8.39146 20.3916 10.6118L22.0809 10.3234C21.6369 7.75054 20.4237 5.41576 18.5742 3.56168Z" fill="white"/>
</g>
<defs>
<clipPath id="clip0">
<rect width="22" height="22" fill="white" transform="translate(0.0812073)"/>
</clipPath>
</defs>
</svg>
